<svg width="32px" height="auto" viewBox="0 0 32 20" fill="none" xmlns="http://www.w3.org/2000/svg">
<g clip-path="url(#clip0_252_404)">
<path d="M0 0H32V20H0V0Z" fill="#009B3A"/>
<path d="M16 1.12865L28.7813 9.98246L16 18.8304L3.15637 9.98246L16 1.12865Z" fill="#FEDF00"/>
<path d="M15.9999 14.7018C18.7698 14.7018 21.0152 12.5967 21.0152 10C21.0152 7.40329 18.7698 5.29824 15.9999 5.29824C13.2301 5.29824 10.9847 7.40329 10.9847 10C10.9847 12.5967 13.2301 14.7018 15.9999 14.7018Z" fill="white"/>
<path d="M13.4674 9.69006C12.6004 9.69006 11.7583 9.81286 10.9661 10.0409C11.0035 12.6082 13.2304 14.6784 15.975 14.6784C17.6717 14.6784 19.175 13.883 20.0795 12.6725C18.5263 10.8596 16.1372 9.69006 13.4674 9.69006ZM20.8904 10.8772C20.9466 10.5848 20.984 10.2865 20.984 9.97661C20.984 7.38012 18.7384 5.27485 15.9688 5.27485C13.9041 5.27485 12.1325 6.45029 11.359 8.11696C12.039 7.9883 12.7376 7.91813 13.455 7.91813C16.3743 7.92398 19.0066 9.05848 20.8904 10.8772Z" fill="#002776"/>
</g>
<defs>
<clipPath id="clip0_252_404">
<rect width="100%" height="25" fill="white"/>
</clipPath>
</defs>
</svg>
