<svg width="32" height="20" viewBox="0 0 32 20" fill="none" xmlns="http://www.w3.org/2000/svg">
<g clip-path="url(#clip0_252_410)">
<path d="M0 0H31.2V20H0V0Z" fill="white"/>
<path d="M0 0H32V1.53801H0V0ZM0 3.07602H32V4.61404H0V3.07602ZM0 6.15205H32V7.69006H0V6.15205ZM0 9.22807H32V10.7661H0V9.22807ZM0 12.3099H32V13.848H0V12.3099ZM0 15.386H32V16.924H0V15.386ZM0 18.462H32V20H0V18.462Z" fill="#D80027"/>
<path d="M0 0H15.6V10.7661H0V0Z" fill="#2E52B2"/>
<path d="M2.90719 8.12281L2.66392 7.37427L2.39631 8.12281H1.59351L2.24427 8.5731L2.00099 9.32164L2.66392 8.85965L3.30859 9.32164L3.05924 8.5731L3.72216 8.12281H2.90719ZM6.33128 8.12281L6.08193 7.37427L5.82649 8.12281H5.02368L5.67444 8.5731L5.43117 9.32164L6.08193 8.85965L6.73877 9.32164L6.49549 8.5731L7.14625 8.12281H6.33128ZM9.76754 8.12281L9.50602 7.37427L9.26275 8.12281H8.44169L9.1107 8.5731L8.85526 9.32164L9.50602 8.85965L10.175 9.32164L9.91959 8.5731L10.5703 8.12281H9.76754ZM13.1856 8.12281L12.9423 7.37427L12.6868 8.12281H11.8779L12.5348 8.5731L12.2915 9.32164L12.9423 8.85965L13.5991 9.32164L13.3376 8.5731L14.0066 8.12281H13.1856ZM6.08193 4.40351L5.82649 5.15205H5.02368L5.67444 5.61404L5.43117 6.35088L6.08193 5.89474L6.73877 6.35088L6.49549 5.61404L7.14625 5.15205H6.33128L6.08193 4.40351ZM2.66392 4.40351L2.39631 5.15205H1.59351L2.24427 5.61404L2.00099 6.35088L2.66392 5.89474L3.30859 6.35088L3.05924 5.61404L3.72216 5.15205H2.90719L2.66392 4.40351ZM9.50602 4.40351L9.26275 5.15205H8.44169L9.1107 5.61404L8.85526 6.35088L9.50602 5.89474L10.175 6.35088L9.91959 5.61404L10.5703 5.15205H9.76754L9.50602 4.40351ZM12.9423 4.40351L12.6868 5.15205H11.8779L12.5348 5.61404L12.2915 6.35088L12.9423 5.89474L13.5991 6.35088L13.3376 5.61404L14.0066 5.15205H13.1856L12.9423 4.40351ZM2.66392 1.44444L2.39631 2.18129H1.59351L2.24427 2.64328L2.00099 3.38597L2.66392 2.92398L3.30859 3.38597L3.05924 2.64328L3.72216 2.18129H2.90719L2.66392 1.44444ZM6.08193 1.44444L5.82649 2.18129H5.02368L5.67444 2.64328L5.43117 3.38597L6.08193 2.92398L6.73877 3.38597L6.49549 2.64328L7.14625 2.18129H6.33128L6.08193 1.44444ZM9.50602 1.44444L9.26275 2.18129H8.44169L9.1107 2.64328L8.85526 3.38597L9.50602 2.92398L10.175 3.38597L9.91959 2.64328L10.5703 2.18129H9.76754L9.50602 1.44444ZM12.9423 1.44444L12.6868 2.18129H11.8779L12.5348 2.64328L12.2915 3.38597L12.9423 2.92398L13.5991 3.38597L13.3376 2.64328L14.0066 2.18129H13.1856L12.9423 1.44444Z" fill="white"/>
</g>
<defs>
<clipPath id="clip0_252_410">
<rect width="31.2" height="20" fill="white"/>
</clipPath>
</defs>
</svg>
